<mxfile host="app.diagrams.net" modified="2023-12-19T08:42:27.358Z" agent="Mozilla/5.0 (Macintosh; Intel Mac OS X 10_15_7) AppleWebKit/537.36 (KHTML, like Gecko) Chrome/120.0.0.0 Safari/537.36" version="22.1.11" etag="xNhAGq36j33B9hSuqLtg" type="github">
  <diagram name="第 1 页" id="JaP6gS5p290uwAghJeMR">
    <mxGraphModel>
      <root>
        <mxCell id="0" />
        <mxCell id="1" parent="0" />
      </root>
    </mxGraphModel>
  </diagram>
</mxfile>
